<svg id="SvgjsSvg1001" width="288" height="288" xmlns="http://www.w3.org/2000/svg" version="1.1" xmlns:xlink="http://www.w3.org/1999/xlink" xmlns:svgjs="http://svgjs.com/svgjs"><defs id="SvgjsDefs1002"></defs><g id="SvgjsG1008" transform="matrix(0.9167,0,0,0.9167,11.995200635528562,11.995513951110837)"><svg xmlns="http://www.w3.org/2000/svg" enable-background="new 0 0 47.5 47.5" viewBox="0 0 47.5 47.5" width="288" height="288"><defs><clipPath id="a" clipPathUnits="userSpaceOnUse"><path d="M 0,38 38,38 38,0 0,0 0,38 Z" fill="#f1664e" class="color000 svgShape"></path></clipPath></defs><g clip-path="url(#a)" transform="matrix(1.25 0 0 -1.25 0 47.5)" fill="#f1664e" class="color000 svgShape"><path fill="#f1664e" d="m 0,0 c 0,5.45 -4.418,9.868 -9.867,9.868 -3.308,0 -6.227,-1.633 -8.018,-4.129 -1.79,2.496 -4.71,4.129 -8.017,4.129 -5.45,0 -9.868,-4.418 -9.868,-9.868 0,-0.772 0.098,-1.52 0.266,-2.241 1.371,-8.512 10.835,-17.494 17.619,-19.96 6.783,2.466 16.249,11.448 17.617,19.96 C -0.098,-1.52 0,-0.772 0,0" transform="translate(36.885 25.166)" class="coloraa8ed6 svgShape"></path></g></svg></g></svg>